<svg xmlns="http://www.w3.org/2000/svg" xmlns:svg="http://www.w3.org/2000/svg" xmlns:xlink="http://www.w3.org/1999/xlink" id="svg4156" width="800" height="266.667" version="1.1"><defs id="defs4158"><linearGradient id="linearGradient4509" x1="54" x2="108.252" y1="94.5" y2="94.5" gradientUnits="userSpaceOnUse"><stop style="stop-color:#706f6f" id="stop4503" offset="0"/><stop style="stop-color:#ededed" id="stop4505" offset=".759"/><stop style="stop-color:#575756" id="stop4507" offset="1"/></linearGradient><linearGradient id="SVGID_1_" x1="18" x2="144" y1="31.5" y2="31.5" gradientUnits="userSpaceOnUse"><stop id="stop8" offset="0" style="stop-color:#c6c6c6"/><stop id="stop10" offset=".399" style="stop-color:#f6f6f6"/><stop id="stop12" offset="1" style="stop-color:#9d9d9c"/></linearGradient><linearGradient id="SVGID_3_" x1="54" x2="108.252" y1="58.5" y2="58.5" gradientUnits="userSpaceOnUse"><stop id="stop28" offset="0" style="stop-color:#706f6f"/><stop id="stop30" offset=".759" style="stop-color:#ededed"/><stop id="stop32" offset="1" style="stop-color:#575756"/></linearGradient><linearGradient id="SVGID_4_" x1="54" x2="108.252" y1="76.5" y2="76.5" gradientUnits="userSpaceOnUse"><stop id="stop37" offset="0" style="stop-color:#706f6f"/><stop id="stop39" offset=".759" style="stop-color:#ededed"/><stop id="stop41" offset="1" style="stop-color:#575756"/></linearGradient><linearGradient id="SVGID_5_" x1="54" x2="108.252" y1="94.5" y2="94.5" gradientUnits="userSpaceOnUse"><stop id="stop46" offset="0" style="stop-color:#706f6f"/><stop id="stop48" offset=".759" style="stop-color:#ededed"/><stop id="stop50" offset="1" style="stop-color:#575756"/></linearGradient><linearGradient id="SVGID_6_" x1="54" x2="108.252" y1="112.5" y2="112.5" gradientUnits="userSpaceOnUse"><stop id="stop55" offset="0" style="stop-color:#706f6f"/><stop id="stop57" offset=".759" style="stop-color:#ededed"/><stop id="stop59" offset="1" style="stop-color:#575756"/></linearGradient><linearGradient id="SVGID_7_" x1="54" x2="108.252" y1="130.5" y2="130.5" gradientUnits="userSpaceOnUse"><stop id="stop64" offset="0" style="stop-color:#706f6f"/><stop id="stop66" offset=".759" style="stop-color:#ededed"/><stop id="stop68" offset="1" style="stop-color:#575756"/></linearGradient><linearGradient id="SVGID_8_" x1="54" x2="108.252" y1="148.5" y2="148.5" gradientUnits="userSpaceOnUse"><stop id="stop73" offset="0" style="stop-color:#706f6f"/><stop id="stop75" offset=".759" style="stop-color:#ededed"/><stop id="stop77" offset="1" style="stop-color:#575756"/></linearGradient><linearGradient id="SVGID_9_" x1="54" x2="108.252" y1="166.5" y2="166.5" gradientUnits="userSpaceOnUse"><stop id="stop82" offset="0" style="stop-color:#706f6f"/><stop id="stop84" offset=".759" style="stop-color:#ededed"/><stop id="stop86" offset="1" style="stop-color:#575756"/></linearGradient><linearGradient id="SVGID_10_" x1="54" x2="108.252" y1="184.5" y2="184.5" gradientUnits="userSpaceOnUse"><stop id="stop91" offset="0" style="stop-color:#706f6f"/><stop id="stop93" offset=".759" style="stop-color:#ededed"/><stop id="stop95" offset="1" style="stop-color:#575756"/></linearGradient><linearGradient id="SVGID_11_" x1="54" x2="108.252" y1="202.5" y2="202.5" gradientUnits="userSpaceOnUse"><stop id="stop100" offset="0" style="stop-color:#706f6f"/><stop id="stop102" offset=".759" style="stop-color:#ededed"/><stop id="stop104" offset="1" style="stop-color:#575756"/></linearGradient><linearGradient id="linearGradient4118" x1="54" x2="108.252" y1="219.233" y2="219.233" gradientUnits="userSpaceOnUse" xlink:href="#SVGID_12_"/><linearGradient id="SVGID_12_" x1="54" x2="108.252" y1="219.233" y2="219.233" gradientUnits="userSpaceOnUse"><stop id="stop109" offset="0" style="stop-color:#706f6f"/><stop id="stop111" offset=".759" style="stop-color:#ededed"/><stop id="stop113" offset="1" style="stop-color:#575756"/></linearGradient><linearGradient id="linearGradient3264" x1="48.781" x2="101.203" y1="31.129" y2="31.129" gradientTransform="matrix(0.98001203,0,0,1.5201674,373.1595,-395.17161)" gradientUnits="userSpaceOnUse" xlink:href="#SVGID_1_"/><linearGradient id="linearGradient3268" x1="54" x2="108.252" y1="219.233" y2="219.233" gradientUnits="userSpaceOnUse" xlink:href="#SVGID_12_"/><linearGradient id="SVGID_11_-1" x1="54" x2="108.252" y1="202.5" y2="202.5" gradientUnits="userSpaceOnUse"><stop id="stop100-8" offset="0" style="stop-color:#706f6f"/><stop id="stop102-9" offset=".759" style="stop-color:#ededed"/><stop id="stop104-2" offset="1" style="stop-color:#575756"/></linearGradient><linearGradient id="SVGID_10_-9" x1="54" x2="108.252" y1="184.5" y2="184.5" gradientUnits="userSpaceOnUse"><stop id="stop91-5" offset="0" style="stop-color:#706f6f"/><stop id="stop93-4" offset=".759" style="stop-color:#ededed"/><stop id="stop95-3" offset="1" style="stop-color:#575756"/></linearGradient><linearGradient id="SVGID_9_-2" x1="54" x2="108.252" y1="166.5" y2="166.5" gradientUnits="userSpaceOnUse"><stop id="stop82-3" offset="0" style="stop-color:#706f6f"/><stop id="stop84-3" offset=".759" style="stop-color:#ededed"/><stop id="stop86-4" offset="1" style="stop-color:#575756"/></linearGradient><linearGradient id="SVGID_8_-1" x1="54" x2="108.252" y1="148.5" y2="148.5" gradientUnits="userSpaceOnUse"><stop id="stop73-3" offset="0" style="stop-color:#706f6f"/><stop id="stop75-8" offset=".759" style="stop-color:#ededed"/><stop id="stop77-7" offset="1" style="stop-color:#575756"/></linearGradient><linearGradient id="SVGID_7_-2" x1="54" x2="108.252" y1="130.5" y2="130.5" gradientUnits="userSpaceOnUse"><stop id="stop64-7" offset="0" style="stop-color:#706f6f"/><stop id="stop66-7" offset=".759" style="stop-color:#ededed"/><stop id="stop68-9" offset="1" style="stop-color:#575756"/></linearGradient><linearGradient id="SVGID_6_-1" x1="54" x2="108.252" y1="112.5" y2="112.5" gradientUnits="userSpaceOnUse"><stop id="stop55-9" offset="0" style="stop-color:#706f6f"/><stop id="stop57-8" offset=".759" style="stop-color:#ededed"/><stop id="stop59-6" offset="1" style="stop-color:#575756"/></linearGradient><linearGradient id="SVGID_5_-0" x1="54" x2="108.252" y1="94.5" y2="94.5" gradientUnits="userSpaceOnUse"><stop id="stop46-2" offset="0" style="stop-color:#706f6f"/><stop id="stop48-8" offset=".759" style="stop-color:#ededed"/><stop id="stop50-6" offset="1" style="stop-color:#575756"/></linearGradient><linearGradient id="SVGID_4_-2" x1="54" x2="108.252" y1="76.5" y2="76.5" gradientUnits="userSpaceOnUse"><stop id="stop37-4" offset="0" style="stop-color:#706f6f"/><stop id="stop39-8" offset=".759" style="stop-color:#ededed"/><stop id="stop41-6" offset="1" style="stop-color:#575756"/></linearGradient><linearGradient id="linearGradient4100-5" x1="54" x2="108.252" y1="58.5" y2="58.5" gradientUnits="userSpaceOnUse" xlink:href="#SVGID_3_-0"/><linearGradient id="SVGID_3_-0" x1="54" x2="108.252" y1="58.5" y2="58.5" gradientUnits="userSpaceOnUse"><stop id="stop28-9" offset="0" style="stop-color:#706f6f"/><stop id="stop30-0" offset=".759" style="stop-color:#ededed"/><stop id="stop32-0" offset="1" style="stop-color:#575756"/></linearGradient><linearGradient id="SVGID_10_-9-6" x1="54" x2="108.252" y1="184.5" y2="184.5" gradientUnits="userSpaceOnUse"><stop id="stop91-5-6" offset="0" style="stop-color:#706f6f"/><stop id="stop93-4-1" offset=".759" style="stop-color:#ededed"/><stop id="stop95-3-8" offset="1" style="stop-color:#575756"/></linearGradient><linearGradient id="SVGID_9_-2-9" x1="54" x2="108.252" y1="166.5" y2="166.5" gradientUnits="userSpaceOnUse"><stop id="stop82-3-6" offset="0" style="stop-color:#706f6f"/><stop id="stop84-3-3" offset=".759" style="stop-color:#ededed"/><stop id="stop86-4-7" offset="1" style="stop-color:#575756"/></linearGradient><linearGradient id="linearGradient4110-1-8" x1="54" x2="108.252" y1="148.5" y2="148.5" gradientUnits="userSpaceOnUse" xlink:href="#SVGID_8_-1-8"/><linearGradient id="SVGID_8_-1-8" x1="54" x2="108.252" y1="148.5" y2="148.5" gradientUnits="userSpaceOnUse"><stop id="stop73-3-2" offset="0" style="stop-color:#706f6f"/><stop id="stop75-8-9" offset=".759" style="stop-color:#ededed"/><stop id="stop77-7-1" offset="1" style="stop-color:#575756"/></linearGradient><linearGradient id="SVGID_7_-2-5" x1="54" x2="108.252" y1="130.5" y2="130.5" gradientUnits="userSpaceOnUse"><stop id="stop64-7-9" offset="0" style="stop-color:#706f6f"/><stop id="stop66-7-8" offset=".759" style="stop-color:#ededed"/><stop id="stop68-9-4" offset="1" style="stop-color:#575756"/></linearGradient><linearGradient id="SVGID_6_-1-7" x1="54" x2="108.252" y1="112.5" y2="112.5" gradientUnits="userSpaceOnUse"><stop id="stop55-9-6" offset="0" style="stop-color:#706f6f"/><stop id="stop57-8-3" offset=".759" style="stop-color:#ededed"/><stop id="stop59-6-6" offset="1" style="stop-color:#575756"/></linearGradient><linearGradient id="SVGID_5_-0-5" x1="54" x2="108.252" y1="94.5" y2="94.5" gradientUnits="userSpaceOnUse"><stop id="stop46-2-4" offset="0" style="stop-color:#706f6f"/><stop id="stop48-8-2" offset=".759" style="stop-color:#ededed"/><stop id="stop50-6-0" offset="1" style="stop-color:#575756"/></linearGradient><linearGradient id="SVGID_4_-2-7" x1="54" x2="108.252" y1="76.5" y2="76.5" gradientUnits="userSpaceOnUse"><stop id="stop37-4-3" offset="0" style="stop-color:#706f6f"/><stop id="stop39-8-7" offset=".759" style="stop-color:#ededed"/><stop id="stop41-6-2" offset="1" style="stop-color:#575756"/></linearGradient><linearGradient id="SVGID_3_-0-0" x1="54" x2="108.252" y1="58.5" y2="58.5" gradientUnits="userSpaceOnUse"><stop id="stop28-9-1" offset="0" style="stop-color:#706f6f"/><stop id="stop30-0-6" offset=".759" style="stop-color:#ededed"/><stop id="stop32-0-5" offset="1" style="stop-color:#575756"/></linearGradient><linearGradient id="SVGID_4_-5" x1="54" x2="108.252" y1="76.5" y2="76.5" gradientUnits="userSpaceOnUse"><stop id="stop37-41" offset="0" style="stop-color:#706f6f"/><stop id="stop39-2" offset=".759" style="stop-color:#ededed"/><stop id="stop41-0" offset="1" style="stop-color:#575756"/></linearGradient><linearGradient id="linearGradient4100-0" x1="54" x2="108.252" y1="58.5" y2="58.5" gradientUnits="userSpaceOnUse" xlink:href="#SVGID_3_-1"/><linearGradient id="SVGID_3_-1" x1="54" x2="108.252" y1="58.5" y2="58.5" gradientUnits="userSpaceOnUse"><stop id="stop28-4" offset="0" style="stop-color:#706f6f"/><stop id="stop30-6" offset=".759" style="stop-color:#ededed"/><stop id="stop32-07" offset="1" style="stop-color:#575756"/></linearGradient><linearGradient id="linearGradient3268-8" x1="54" x2="108.252" y1="219.233" y2="219.233" gradientUnits="userSpaceOnUse" xlink:href="#SVGID_12_-1"/><linearGradient id="SVGID_12_-1" x1="54" x2="108.252" y1="219.233" y2="219.233" gradientUnits="userSpaceOnUse"><stop id="stop109-8" offset="0" style="stop-color:#706f6f"/><stop id="stop111-2" offset=".759" style="stop-color:#ededed"/><stop id="stop113-6" offset="1" style="stop-color:#575756"/></linearGradient><linearGradient id="linearGradient3675" x1="54" x2="108.252" y1="219.233" y2="219.233" gradientUnits="userSpaceOnUse" xlink:href="#SVGID_12_-1"/><linearGradient id="linearGradient4116-0" x1="54" x2="108.252" y1="202.5" y2="202.5" gradientUnits="userSpaceOnUse" xlink:href="#SVGID_11_-3"/><linearGradient id="SVGID_11_-3" x1="54" x2="108.252" y1="202.5" y2="202.5" gradientUnits="userSpaceOnUse"><stop id="stop100-80" offset="0" style="stop-color:#706f6f"/><stop id="stop102-1" offset=".759" style="stop-color:#ededed"/><stop id="stop104-25" offset="1" style="stop-color:#575756"/></linearGradient><linearGradient id="linearGradient3730" x1="54" x2="108.252" y1="202.5" y2="202.5" gradientUnits="userSpaceOnUse" xlink:href="#SVGID_11_-3"/><linearGradient id="linearGradient3759" x1="54" x2="108.252" y1="202.5" y2="202.5" gradientUnits="userSpaceOnUse" xlink:href="#SVGID_11_-3"/><linearGradient id="linearGradient3767" x1="48.781" x2="101.203" y1="31.129" y2="31.129" gradientTransform="matrix(0,0.91876125,-1.4251569,0,423.07139,142.75891)" gradientUnits="userSpaceOnUse" xlink:href="#SVGID_1_-9"/><linearGradient id="SVGID_1_-9" x1="18" x2="144" y1="31.5" y2="31.5" gradientUnits="userSpaceOnUse"><stop id="stop8-4" offset="0" style="stop-color:#c6c6c6"/><stop id="stop10-7" offset=".399" style="stop-color:#f6f6f6"/><stop id="stop12-8" offset="1" style="stop-color:#9d9d9c"/></linearGradient><linearGradient id="linearGradient4575" x1="48.781" x2="101.203" y1="31.129" y2="31.129" gradientTransform="matrix(0,0.91876125,-1.4251569,0,423.07139,142.75891)" gradientUnits="userSpaceOnUse" xlink:href="#SVGID_1_-5"/><linearGradient id="SVGID_1_-5" x1="18" x2="144" y1="31.5" y2="31.5" gradientUnits="userSpaceOnUse"><stop id="stop8-1" offset="0" style="stop-color:#c6c6c6"/><stop id="stop10-2" offset=".399" style="stop-color:#f6f6f6"/><stop id="stop12-0" offset="1" style="stop-color:#9d9d9c"/></linearGradient><linearGradient id="linearGradient4621" x1="668.66" x2="668.66" y1="407.926" y2="456.681" gradientTransform="matrix(1.0666667,0,0,1.0666667,3.7403035,-14.725555)" gradientUnits="userSpaceOnUse" xlink:href="#SVGID_5_-0-5"/><linearGradient id="linearGradient4623" x1="-23.668" x2="-23.375" y1="408.528" y2="456.942" gradientTransform="matrix(1.0666667,0,0,1.0666667,3.7403035,-14.725555)" gradientUnits="userSpaceOnUse" xlink:href="#SVGID_5_-0-5"/><linearGradient id="linearGradient4625" x1="54" x2="108" y1="184.5" y2="184.5" gradientUnits="userSpaceOnUse" xlink:href="#SVGID_5_-0-5"/><linearGradient id="linearGradient4627" x1="54" x2="108" y1="166.5" y2="166.5" gradientUnits="userSpaceOnUse" xlink:href="#SVGID_5_-0-5"/><linearGradient id="linearGradient4629" x1="54" x2="108" y1="58.5" y2="58.5" gradientUnits="userSpaceOnUse" xlink:href="#SVGID_5_-0-5"/><linearGradient id="linearGradient4631" x1="54" x2="108" y1="184.5" y2="184.5" gradientUnits="userSpaceOnUse" xlink:href="#SVGID_5_-0-5"/><linearGradient id="linearGradient4633" x1="54" x2="108" y1="166.5" y2="166.5" gradientUnits="userSpaceOnUse" xlink:href="#SVGID_5_-0-5"/><linearGradient id="linearGradient4635" x1="54" x2="108" y1="148.5" y2="148.5" gradientUnits="userSpaceOnUse" xlink:href="#SVGID_5_-0-5"/><linearGradient id="linearGradient4637" x1="54" x2="108" y1="130.5" y2="130.5" gradientUnits="userSpaceOnUse" xlink:href="#SVGID_5_-0-5"/><linearGradient id="linearGradient4639" x1="54" x2="108" y1="112.5" y2="112.5" gradientUnits="userSpaceOnUse" xlink:href="#SVGID_5_-0-5"/><linearGradient id="linearGradient4641" x1="54" x2="108" y1="94.5" y2="94.5" gradientUnits="userSpaceOnUse" xlink:href="#SVGID_5_-0-5"/><linearGradient id="linearGradient4643" x1="54" x2="108" y1="76.5" y2="76.5" gradientUnits="userSpaceOnUse" xlink:href="#SVGID_5_-0-5"/><linearGradient id="linearGradient4645" x1="54" x2="108" y1="58.5" y2="58.5" gradientUnits="userSpaceOnUse" xlink:href="#SVGID_5_-0-5"/><linearGradient id="linearGradient4647" x1="54" x2="108" y1="202.5" y2="202.5" gradientUnits="userSpaceOnUse" xlink:href="#SVGID_5_-0-5"/><linearGradient id="linearGradient4649" x1="54" x2="108" y1="184.5" y2="184.5" gradientUnits="userSpaceOnUse" xlink:href="#SVGID_5_-0-5"/><linearGradient id="linearGradient4651" x1="54" x2="108" y1="166.5" y2="166.5" gradientUnits="userSpaceOnUse" xlink:href="#SVGID_5_-0-5"/><linearGradient id="linearGradient4653" x1="54" x2="108" y1="148.5" y2="148.5" gradientUnits="userSpaceOnUse" xlink:href="#SVGID_5_-0-5"/><linearGradient id="linearGradient4655" x1="54" x2="108" y1="130.5" y2="130.5" gradientUnits="userSpaceOnUse" xlink:href="#SVGID_5_-0-5"/><linearGradient id="linearGradient4657" x1="54" x2="108" y1="112.5" y2="112.5" gradientUnits="userSpaceOnUse" xlink:href="#SVGID_5_-0-5"/><linearGradient id="linearGradient4659" x1="54" x2="108" y1="94.5" y2="94.5" gradientUnits="userSpaceOnUse" xlink:href="#SVGID_5_-0-5"/><linearGradient id="linearGradient4661" x1="54" x2="108" y1="76.5" y2="76.5" gradientUnits="userSpaceOnUse" xlink:href="#SVGID_5_-0-5"/><linearGradient id="linearGradient4663" x1="54" x2="108" y1="58.5" y2="58.5" gradientUnits="userSpaceOnUse" xlink:href="#SVGID_5_-0-5"/></defs><metadata id="metadata4162"/><g id="layer1" transform="translate(56.104553,-220.88332)"><rect style="fill:url(#linearGradient3264);fill-opacity:1;stroke:none;stroke-width:1.06666672" id="rect3959-7" width="51.374" height="768.122" x="420.966" y="-731.912" rx="9.8" ry="15.202" transform="rotate(90)"/><polygon style="fill:url(#linearGradient4663);fill-opacity:1" id="polygon34" points="54 65.5 108 56.5 108 51.5 54 60.5" class="st2" transform="matrix(0,0.9626562,-2.3067252,0,482.87111,368.66322)"/><polygon style="fill:url(#linearGradient4661);fill-opacity:1" id="polygon43" points="54 83.5 108 74.5 108 69.5 54 78.5" class="st3" transform="matrix(0,0.9626562,-2.3067252,0,482.87111,368.66322)"/><polygon style="fill:url(#linearGradient4659);fill-opacity:1" id="polygon52" points="54 101.5 108 92.5 108 87.5 54 96.5" class="st4" transform="matrix(0,0.9626562,-2.3067252,0,482.87111,368.66322)"/><polygon style="fill:url(#linearGradient4657);fill-opacity:1" id="polygon61" points="54 119.5 108 110.5 108 105.5 54 114.5" class="st5" transform="matrix(0,0.9626562,-2.3067252,0,482.87111,368.66322)"/><polygon style="fill:url(#linearGradient4655);fill-opacity:1" id="polygon70" points="54 137.5 108 128.5 108 123.5 54 132.5" class="st6" transform="matrix(0,0.9626562,-2.3067252,0,482.87111,368.66322)"/><polygon style="fill:url(#linearGradient4653);fill-opacity:1" id="polygon79" points="54 155.5 108 146.5 108 141.5 54 150.5" class="st7" transform="matrix(0,0.9626562,-2.3067252,0,482.87111,368.66322)"/><polygon style="fill:url(#linearGradient4651);fill-opacity:1" id="polygon88" points="54 173.5 108 164.5 108 159.5 54 168.5" class="st8" transform="matrix(0,0.9626562,-2.3067252,0,482.87111,368.66322)"/><polygon style="fill:url(#linearGradient4649);fill-opacity:1" id="polygon97" points="54 191.5 108 182.5 108 177.5 54 186.5" class="st9" transform="matrix(0,0.9626562,-2.3067252,0,482.87111,368.66322)"/><polygon style="fill:url(#linearGradient4647);fill-opacity:1" id="polygon106" points="54 209.5 108 200.5 108 195.5 54 204.5" class="st10" transform="matrix(0,0.9626562,-2.3067252,0,482.87111,368.66322)"/><rect style="fill:#ffdf5a;fill-opacity:1;stroke:none;stroke-width:1.06666672" id="rect3949" width="10.736" height="15.788" x="-65.936" y="392.99" transform="scale(-1,1)"/><rect style="fill:#ffdf5a;fill-opacity:1;stroke:none;stroke-width:1.06666672" id="rect3951" width="37.576" height="9.473" x="-65.305" y="392.99" transform="scale(-1,1)"/><path id="path3953" d="m 36.885705,393.62191 h -9.473031 v 34.73993 l 14.608517,6.25187 z" style="fill:#ffdf5a;fill-opacity:1;stroke:none;stroke-width:1.06666672"/><path style="fill:#4281b2;fill-opacity:1;stroke:none;stroke-width:1.06666672" id="path3955" d="m 67.199406,413.26509 1.039564,2.30362 -1.039564,2.30019 -1.039562,-2.30019 z"/><path id="path3957" d="m 25.203429,262.863 v -27.78853 l 16.733705,8.84149 2.841919,18.94704 z m 3.788729,-5.05277 h 4.420741 v -4.73848 h -4.420741 z" style="fill:#4281b2;fill-opacity:1;stroke:none;stroke-width:1.06666672"/><rect id="rect3959" width="10.736" height="15.788" x="32.465" y="-278.019" transform="scale(1,-1)" style="fill:#4281b2;fill-opacity:1;stroke:none;stroke-width:1.06666672"/><rect id="rect3961" width="37.576" height="9.473" x="33.097" y="-278.019" transform="scale(1,-1)" style="fill:#4281b2;fill-opacity:1;stroke:none;stroke-width:1.06666672"/><path id="path3963" d="m 61.515735,277.38728 h 9.473029 V 243.31723 L 56.82682,235.50237 Z" style="fill:#4281b2;fill-opacity:1;stroke:none;stroke-width:1.06666672"/><path id="path3965" d="m 31.202033,257.74412 -1.039563,-2.30364 1.039563,-2.30016 1.039562,2.30016 z" style="fill:#ffdf5a;fill-opacity:1;stroke:none;stroke-width:1.06666672"/><path style="fill:#ffdf5a;fill-opacity:1;stroke:none;stroke-width:1.06666672" id="path3967" d="m 73.19801,408.1462 v 27.78854 L 56.464305,427.09325 53.622386,408.1462 Z m -3.788728,5.05276 H 64.98854 v 4.73851 h 4.420742 z"/><rect style="fill:#ffdf5a;fill-opacity:1;stroke:none;stroke-width:1.06666672" id="rect3949-1" width="10.736" height="15.788" x="318.753" y="106.812" transform="matrix(0,1,1,0,0,0)"/><rect style="fill:#ffdf5a;fill-opacity:1;stroke:none;stroke-width:1.06666672" id="rect3951-7" width="37.576" height="9.473" x="319.384" y="106.812" transform="matrix(0,1,1,0,0,0)"/><path id="path3953-4" d="m 107.44329,347.80354 v 9.47304 h 34.7399 l 6.25189,-14.60852 z" style="fill:#ffdf5a;fill-opacity:1;stroke:none;stroke-width:1.06666672"/><path style="fill:#4281b2;fill-opacity:1;stroke:none;stroke-width:1.06666672" id="path3955-0" d="m 127.08645,317.48984 2.30362,-1.03957 2.30019,1.03957 -2.30019,1.03956 z"/><path id="path3957-9" d="m -23.315631,359.48582 h -27.788532 l 8.841518,-16.73371 18.947014,-2.84192 z m -5.052753,-3.78874 v -4.42073 h -4.738512 v 4.42073 z" style="fill:#4281b2;fill-opacity:1;stroke:none;stroke-width:1.06666672"/><rect id="rect3959-4" width="10.736" height="15.788" x="-352.224" y="8.16" transform="matrix(0,-1,-1,0,0,0)" style="fill:#4281b2;fill-opacity:1;stroke:none;stroke-width:1.06666672"/><rect id="rect3961-8" width="37.576" height="9.473" x="-351.593" y="8.16" transform="matrix(0,-1,-1,0,0,0)" style="fill:#4281b2;fill-opacity:1;stroke:none;stroke-width:1.06666672"/><path id="path3963-8" d="m -8.791369,323.17351 v -9.47303 h -34.070026 l -7.814851,14.16195 z" style="fill:#4281b2;fill-opacity:1;stroke:none;stroke-width:1.06666672"/><path id="path3965-2" d="m -28.434515,353.48721 -2.303618,1.03957 -2.300182,-1.03957 2.300182,-1.03956 z" style="fill:#ffdf5a;fill-opacity:1;stroke:none;stroke-width:1.06666672"/><path style="fill:#ffdf5a;fill-opacity:1;stroke:none;stroke-width:1.06666672" id="path3967-4" d="m 121.96755,311.49123 h 27.78855 l -8.8415,16.73371 -18.94705,2.84192 z m 5.05279,3.78873 v 4.42075 h 4.73849 v -4.42075 z"/><rect style="fill:#ffdf5a;fill-opacity:1;stroke:none;stroke-width:1.06666672" id="rect3949-5" width="10.736" height="15.788" x="-288.741" y="260.071" transform="matrix(-0.70710678,-0.70710678,-0.70710678,0.70710678,0,0)"/><rect style="fill:#ffdf5a;fill-opacity:1;stroke:none;stroke-width:1.06666672" id="rect3951-5" width="37.576" height="9.473" x="-288.109" y="260.071" transform="matrix(-0.70710678,-0.70710678,-0.70710678,0.70710678,0,0)"/><path id="path3953-1" d="m -0.71641647,367.97336 -6.69843623,-6.69846 -24.5648183,24.56484 5.909018,14.75052 z" style="fill:#ffdf5a;fill-opacity:1;stroke:none;stroke-width:1.06666672"/><path style="fill:#4281b2;fill-opacity:1;stroke:none;stroke-width:1.06666672" id="path3955-7" d="m 6.8288019,403.29821 -0.8938371,2.36396 -2.3615531,0.89139 0.8913899,-2.36153 z"/><path id="path3957-1" d="m 83.483466,267.25222 19.649464,-19.64947 5.58067,18.0844 -11.388048,15.40712 z m 6.251898,-0.89383 3.125932,3.12595 3.350622,-3.35062 -3.125932,-3.12594 z" style="fill:#4281b2;fill-opacity:1;stroke:none;stroke-width:1.06666672"/><rect id="rect3959-1" width="10.736" height="15.788" x="255.269" y="-145.1" transform="matrix(0.70710678,0.70710678,0.70710678,-0.70710678,0,0)" style="fill:#4281b2;fill-opacity:1;stroke:none;stroke-width:1.06666672"/><rect id="rect3961-5" width="37.576" height="9.473" x="255.901" y="-145.1" transform="matrix(0.70710678,0.70710678,0.70710678,-0.70710678,0,0)" style="fill:#4281b2;fill-opacity:1;stroke:none;stroke-width:1.06666672"/><path id="path3963-2" d="m 98.889957,303.1991 6.698433,6.69846 24.09117,-24.09117 -4.48807,-15.53993 z" style="fill:#4281b2;fill-opacity:1;stroke:none;stroke-width:1.06666672"/><path id="path3965-7" d="m 91.344739,267.87426 0.893805,-2.36399 2.361552,-0.89138 -0.89139,2.36154 z" style="fill:#ffdf5a;fill-opacity:1;stroke:none;stroke-width:1.06666672"/><path style="fill:#ffdf5a;fill-opacity:1;stroke:none;stroke-width:1.06666672" id="path3967-6" d="m 14.690041,403.92023 -19.6494623,19.6495 -5.5806327,-18.08444 11.38804287,-15.40711 z m -6.2518969,0.89384 -3.1259324,-3.12594 -3.3506228,3.35062 3.1259316,3.12595 z"/><rect style="fill:#ffdf5a;fill-opacity:1;stroke:none;stroke-width:1.06666672" id="rect3949-1-1" width="10.736" height="15.788" x="185.834" y="329.616" transform="matrix(-0.70710678,0.70710678,0.70710678,0.70710678,0,0)"/><rect style="fill:#ffdf5a;fill-opacity:1;stroke:none;stroke-width:1.06666672" id="rect3951-7-4" width="37.576" height="9.473" x="186.466" y="329.616" transform="matrix(-0.70710678,0.70710678,0.70710678,0.70710678,0,0)"/><path id="path3953-4-2" d="m 81.573808,385.46661 -6.698437,6.69843 24.564822,24.56482 14.750527,-5.90903 z" style="fill:#ffdf5a;fill-opacity:1;stroke:none;stroke-width:1.06666672"/><path style="fill:#4281b2;fill-opacity:1;stroke:none;stroke-width:1.06666672" id="path3955-0-3" d="m 116.89865,377.92139 2.36399,0.89383 0.89139,2.36156 -2.36156,-0.89139 z"/><path id="path3957-9-2" d="m -19.147326,301.26669 -19.649461,-19.64943 18.0844,-5.58067 15.4071161,11.38804 z m -0.893802,-6.25186 3.125936,-3.12594 -3.350622,-3.35062 -3.125937,3.12594 z" style="fill:#4281b2;fill-opacity:1;stroke:none;stroke-width:1.06666672"/><rect id="rect3959-4-2" width="10.736" height="15.788" x="-219.305" y="-214.644" transform="matrix(0.70710678,-0.70710678,-0.70710678,-0.70710678,0,0)" style="fill:#4281b2;fill-opacity:1;stroke:none;stroke-width:1.06666672"/><rect id="rect3961-8-1" width="37.576" height="9.473" x="-218.674" y="-214.644" transform="matrix(0.70710678,-0.70710678,-0.70710678,-0.70710678,0,0)" style="fill:#4281b2;fill-opacity:1;stroke:none;stroke-width:1.06666672"/><path id="path3963-8-6" d="M 16.799558,285.86023 23.498025,279.16179 -0.59314287,255.07063 -16.133087,259.5587 Z" style="fill:#4281b2;fill-opacity:1;stroke:none;stroke-width:1.06666672"/><path id="path3965-2-8" d="m -18.525266,293.40545 -2.364004,-0.89384 -0.891381,-2.36152 2.361554,0.89136 z" style="fill:#ffdf5a;fill-opacity:1;stroke:none;stroke-width:1.06666672"/><path style="fill:#ffdf5a;fill-opacity:1;stroke:none;stroke-width:1.06666672" id="path3967-4-5" d="m 117.5207,370.06015 19.64946,19.64946 -18.0844,5.58063 -15.40712,-11.38804 z m 0.89382,6.25186 -3.12594,3.12597 3.35062,3.35062 3.12595,-3.12593 z"/><polygon style="fill:url(#linearGradient4645);fill-opacity:1" id="polygon34-6" points="108 51.5 54 60.5 54 65.5 108 56.5" class="st2" transform="matrix(0,0.9626562,-2.3067252,0,773.46247,368.52074)"/><polygon style="fill:url(#linearGradient4643);fill-opacity:1" id="polygon43-1" points="108 69.5 54 78.5 54 83.5 108 74.5" class="st3" transform="matrix(0,0.9626562,-2.3067252,0,773.46247,368.52074)"/><polygon style="fill:url(#linearGradient4641);fill-opacity:1" id="polygon52-3" points="108 87.5 54 96.5 54 101.5 108 92.5" class="st4" transform="matrix(0,0.9626562,-2.3067252,0,773.46247,368.52074)"/><polygon style="fill:url(#linearGradient4639);fill-opacity:1" id="polygon61-8" points="108 105.5 54 114.5 54 119.5 108 110.5" class="st5" transform="matrix(0,0.9626562,-2.3067252,0,773.46247,368.52074)"/><polygon style="fill:url(#linearGradient4637);fill-opacity:1" id="polygon70-9" points="108 123.5 54 132.5 54 137.5 108 128.5" class="st6" transform="matrix(0,0.9626562,-2.3067252,0,773.46247,368.52074)"/><polygon style="fill:url(#linearGradient4635);fill-opacity:1" id="polygon79-3" points="108 141.5 54 150.5 54 155.5 108 146.5" class="st7" transform="matrix(0,0.9626562,-2.3067252,0,773.46247,368.52074)"/><polygon style="fill:url(#linearGradient4633);fill-opacity:1" id="polygon88-4" points="108 159.5 54 168.5 54 173.5 108 164.5" class="st8" transform="matrix(0,0.9626562,-2.3067252,0,773.46247,368.52074)"/><polygon style="fill:url(#linearGradient4631);fill-opacity:1" id="polygon97-4" points="108 177.5 54 186.5 54 191.5 108 182.5" class="st9" transform="matrix(0,0.9626562,-2.3067252,0,773.46247,368.52074)"/><text style="font-size:14.18652439px;line-height:0%;font-family:'Jigsaw Trouserdrop';text-align:center;text-anchor:middle;fill:#555;stroke-width:1.0666666" id="7" x="454.024" y="367.611" font-size="40" line-height="125%" text-align="center" transform="scale(0.97869852,1.0217651)"><tspan style="font-weight:700;font-size:177.33155823px;line-height:125%;font-family:'Liberation Sans';text-align:center;stroke-width:1.0666666" id="K" x="454.024" y="367.611" font-size="18" font-weight="bold" line-height="125%" text-align="center">PyCNC</tspan></text><polygon style="fill:url(#linearGradient4629);fill-opacity:1" id="polygon34-1" points="54 60.5 54 65.5 108 56.5 108 51.5" class="st2" transform="matrix(0,0.9626562,-2.3067252,0,773.53571,368.5408)"/><polygon style="fill:url(#linearGradient4627);fill-opacity:1" id="polygon88-4-9" points="108 164.5 108 159.5 54 168.5 54 173.5" class="st8" transform="matrix(0,0.9626562,-2.3067252,0,1064.1271,368.39832)"/><polygon style="fill:url(#linearGradient4625);fill-opacity:1" id="polygon97-4-9" points="108 182.5 108 177.5 54 186.5 54 191.5" class="st9" transform="matrix(0,0.9626562,-2.3067252,0,1064.1271,368.39832)"/><path style="fill:url(#linearGradient4623);fill-opacity:1;stroke:none;stroke-width:1.06666672" id="rect3959-7-3" d="m -29.49342,423.01262 c -4.003719,1.76149 -6.633334,4.69262 -6.633334,8.06667 v 4.16666 l 14.933334,37.43334 c 0.08906,9.8e-4 0.177236,0 0.266666,0 h 11.2666671 z"/><path style="fill:url(#linearGradient4621);fill-opacity:1;stroke:none;stroke-width:1.06666672" id="rect3959-7-1" d="m 705.44407,420.36251 19.83333,49.6 c 3.88622,-1.77178 6.4,-4.6847 6.4,-8 v -4.8 l -14.7,-36.76667 c -0.1668,-0.003 -0.33184,-0.0333 -0.5,-0.0333 h -11.03333 z"/><circle style="fill:none;fill-opacity:1;stroke:#555;stroke-width:40;stroke-miterlimit:4;stroke-dasharray:none;stroke-opacity:1" id="path4501" cx="49.239" cy="335.436" r="35.686"/></g></svg>